<svg width="70" height="70" viewBox="0 0 70 70" fill="none" xmlns="http://www.w3.org/2000/svg">
<path fill-rule="evenodd" clip-rule="evenodd" d="M35 70C54.33 70 70 54.33 70 35C70 15.67 54.33 0 35 0C15.67 0 0 15.67 0 35C0 54.33 15.67 70 35 70Z" fill="#F1F0F0"/>
<mask id="mask0" mask-type="alpha" maskUnits="userSpaceOnUse" x="0" y="0" width="70" height="70">
<path fill-rule="evenodd" clip-rule="evenodd" d="M35 70C54.33 70 70 54.33 70 35C70 15.67 54.33 0 35 0C15.67 0 0 15.67 0 35C0 54.33 15.67 70 35 70Z" fill="white"/>
</mask>
<g mask="url(#mask0)">
<path d="M15.5625 66.0781C15.5625 59.9919 20.4964 55.058 26.5826 55.058H43.7133C49.7995 55.058 54.7334 59.9919 54.7334 66.0781V84.3516H15.5625V66.0781Z" fill="#F15165" stroke="#363A50" stroke-width="1.25944"/>
<mask id="mask1" mask-type="alpha" maskUnits="userSpaceOnUse" x="14" y="54" width="42" height="31">
<path d="M15.5625 66.0781C15.5625 59.9919 20.4964 55.058 26.5826 55.058H43.7133C49.7995 55.058 54.7334 59.9919 54.7334 66.0781V84.3516H15.5625V66.0781Z" fill="white" stroke="white" stroke-width="1.25944"/>
</mask>
<g mask="url(#mask1)">
<path d="M15.5625 66.0781C15.5625 59.9919 20.4964 55.058 26.5826 55.058H43.7133C49.7995 55.058 54.7334 59.9919 54.7334 66.0781V84.3516H15.5625V66.0781Z" fill="#363A50" stroke="#363A50" stroke-width="1.25944"/>
<path fill-rule="evenodd" clip-rule="evenodd" d="M31.9235 56.6636L22.4014 65.6953C22.1776 65.9076 22.0508 66.2026 22.0508 66.5112V82.1319H47.6245V65.8774C47.6245 65.5838 47.5097 65.3019 47.3046 65.0918L38.7975 56.3784L31.9235 56.6636Z" fill="#E72F47"/>
<mask id="mask2" mask-type="alpha" maskUnits="userSpaceOnUse" x="22" y="56" width="26" height="27">
<path fill-rule="evenodd" clip-rule="evenodd" d="M31.9235 56.6636L22.4014 65.6953C22.1776 65.9076 22.0508 66.2026 22.0508 66.5112V82.1319H47.6245V65.8774C47.6245 65.5838 47.5097 65.3019 47.3046 65.0918L38.7975 56.3784L31.9235 56.6636Z" fill="white"/>
</mask>
<g mask="url(#mask2)">
<path fill-rule="evenodd" clip-rule="evenodd" d="M31.9235 56.6636L22.4014 65.6953C22.1776 65.9076 22.0508 66.2026 22.0508 66.5112V82.1319H47.6245V65.8774C47.6245 65.5838 47.5097 65.3019 47.3046 65.0918L38.7975 56.3784L31.9235 56.6636Z" fill="#F7334C"/>
<path fill-rule="evenodd" clip-rule="evenodd" d="M35.1035 58.271C35.1035 58.271 41.4757 65.018 42.8501 68.6414C44.2244 72.2647 37.7273 82.0104 37.7273 82.0104L56.7189 82.1353L60.4672 61.8944C60.4672 61.8944 52.3458 52.7734 51.5962 52.7734C50.8465 52.7734 44.2244 51.524 44.2244 51.524L35.1035 58.271Z" fill="black" fill-opacity="0.1"/>
</g>
<path fill-rule="evenodd" clip-rule="evenodd" d="M39.5762 55.0893C39.5762 55.0893 58.9425 55.5208 54.1946 81.7024L55.9439 81.5209L56.5686 64.0287L54.4445 54.6579L49.0719 52.4089L39.5762 55.0893Z" fill="black" fill-opacity="0.1"/>
<path fill-rule="evenodd" clip-rule="evenodd" d="M20.7344 80.4847L21.9838 65.6163L22.1088 80.1206L20.7344 80.4847Z" fill="black" fill-opacity="0.2"/>
</g>
<path d="M54.8461 36.4728C54.8461 38.7355 53.0143 40.5682 50.7566 40.5682C48.4989 40.5682 46.667 38.7355 46.667 36.4728C46.667 34.2101 48.4989 32.3774 50.7566 32.3774C53.0143 32.3774 54.8461 34.2101 54.8461 36.4728Z" fill="#F9CCB6" stroke="#363A50" stroke-width="1.5743"/>
<path fill-rule="evenodd" clip-rule="evenodd" d="M51.3771 38.8371C52.3432 38.8371 53.1264 38.0539 53.1264 37.0878C53.1264 36.1218 52.3432 35.3386 51.3771 35.3386C50.4111 35.3386 49.6279 36.1218 49.6279 37.0878C49.6279 38.0539 50.4111 38.8371 51.3771 38.8371Z" fill="black" fill-opacity="0.1"/>
<path d="M23.225 36.4728C23.225 38.7355 21.3932 40.5682 19.1355 40.5682C16.8778 40.5682 15.0459 38.7355 15.0459 36.4728C15.0459 34.2101 16.8778 32.3774 19.1355 32.3774C21.3932 32.3774 23.225 34.2101 23.225 36.4728Z" fill="#F9CCB6" stroke="#363A50" stroke-width="1.5743"/>
<path fill-rule="evenodd" clip-rule="evenodd" d="M18.132 38.5872C19.0981 38.5872 19.8813 37.804 19.8813 36.8379C19.8813 35.8719 19.0981 35.0887 18.132 35.0887C17.166 35.0887 16.3828 35.8719 16.3828 36.8379C16.3828 37.804 17.166 38.5872 18.132 38.5872Z" fill="black" fill-opacity="0.1"/>
<rect x="31.5185" y="48.0373" width="7.84226" height="9.97534" rx="3.92113" fill="#F9CCB6" stroke="#363A50" stroke-width="1.5743"/>
<mask id="mask3" mask-type="alpha" maskUnits="userSpaceOnUse" x="30" y="47" width="11" height="12">
<rect x="31.5185" y="48.0373" width="7.84226" height="9.97534" rx="3.92113" fill="white" stroke="white" stroke-width="1.5743"/>
</mask>
<g mask="url(#mask3)">
<rect x="30.5068" y="45.4504" width="9.75339" height="13.0726" rx="4.8767" fill="#F9CCB6"/>
<path fill-rule="evenodd" clip-rule="evenodd" d="M33.2732 50.3241C33.2732 50.3241 31.924 54.5978 35.4093 56.8472C38.8946 59.0965 34.7347 58.984 34.7347 58.984L30.1251 55.1602L30.0127 50.9989L33.2732 50.3241Z" fill="#F8CCB8"/>
<path fill-rule="evenodd" clip-rule="evenodd" d="M37.2111 51.0808C37.2111 51.0808 38.8353 57.8278 33.0879 56.3285L34.0874 57.9528L38.2106 56.9532L40.3347 53.4548L39.3351 51.0808H37.2111Z" fill="black" fill-opacity="0.05"/>
</g>
<path fill-rule="evenodd" clip-rule="evenodd" d="M18.2257 30.5187C18.762 21.653 26.1084 14.7376 34.9903 14.7376C43.8722 14.7376 51.2186 21.653 51.7549 30.5187L51.9584 33.8824C52.5497 43.6565 44.7823 51.908 34.9903 51.908C25.1983 51.908 17.4309 43.6566 18.0222 33.8824L18.2257 30.5187Z" fill="#F9CCB6"/>
<mask id="mask4" mask-type="alpha" maskUnits="userSpaceOnUse" x="17" y="14" width="35" height="38">
<path fill-rule="evenodd" clip-rule="evenodd" d="M18.2257 30.5187C18.762 21.653 26.1084 14.7376 34.9903 14.7376C43.8722 14.7376 51.2186 21.653 51.7549 30.5187L51.9584 33.8824C52.5497 43.6565 44.7823 51.908 34.9903 51.908C25.1983 51.908 17.4309 43.6566 18.0222 33.8824L18.2257 30.5187Z" fill="white"/>
</mask>
<g mask="url(#mask4)">
<path d="M36.5731 51.1208H36.5729H36.5722H36.5714H36.5707H36.5699H36.5691H36.5684H36.5676H36.5668H36.566H36.5652H36.5643H36.5635H36.5627H36.5618H36.5609H36.5601H36.5592H36.5583H36.5574H36.5565H36.5556H36.5546H36.5537H36.5528H36.5518H36.5508H36.5499H36.5489H36.5479H36.5469H36.5459H36.5448H36.5438H36.5428H36.5417H36.5407H36.5396H36.5385H36.5374H36.5363H36.5352H36.5341H36.533H36.5319H36.5307H36.5296H36.5284H36.5272H36.5261H36.5249H36.5237H36.5225H36.5213H36.52H36.5188H36.5176H36.5163H36.5151H36.5138H36.5125H36.5112H36.5099H36.5086H36.5073H36.506H36.5047H36.5033H36.502H36.5006H36.4992H36.4978H36.4965H36.4951H36.4937H36.4922H36.4908H36.4894H36.4879H36.4865H36.485H36.4836H36.4821H36.4806H36.4791H36.4776H36.4761H36.4746H36.473H36.4715H36.47H36.4684H36.4668H36.4653H36.4637H36.4621H36.4605H36.4589H36.4572H36.4556H36.454H36.4523H36.4507H36.449H36.4473H36.4457H36.444H36.4423H36.4405H36.4388H36.4371H36.4354H36.4336H36.4319H36.4301H36.4283H36.4266H36.4248H36.423H36.4212H36.4194H36.4175H36.4157H36.4139H36.412H36.4102H36.4083H36.4064H36.4045H36.4026H36.4007H36.3988H36.3969H36.395H36.393H36.3911H36.3891H36.3872H36.3852H36.3832H36.3812H36.3792H36.3772H36.3752H36.3732H36.3712H36.3691H36.3671H36.365H36.363H36.3609H36.3588H36.3567H36.3546H36.3525H36.3504H36.3482H36.3461H36.344H36.3418H36.3397H36.3375H36.3353H36.3331H36.3309H36.3287H36.3265H36.3243H36.3221H36.3198H36.3176H36.3153H36.3131H36.3108H36.3085H36.3062H36.3039H36.3016H36.2993H36.297H36.2947H36.2923H36.29H36.2876H36.2853H36.2829H36.2805H36.2781H36.2757H36.2733H36.2709H36.2685H36.2661H36.2636H36.2612H36.2587H36.2562H36.2538H36.2513H36.2488H36.2463H36.2438H36.2413H36.2388H36.2362H36.2337H36.2312H36.2286H36.226H36.2235H36.2209H36.2183H36.2157H36.2131H36.2105H36.2079H36.2052H36.2026H36.1999H36.1973H36.1946H36.192H36.1893H36.1866H36.1839H36.1812H36.1785H36.1758H36.173H36.1703H36.1676H36.1648H36.162H36.1593H36.1565H36.1537H36.1509H36.1481H36.1453H36.1425H36.1397H36.1368H36.134H36.1312H36.1283H36.1254H36.1226H36.1197H36.1168H36.1139H36.111H36.1081H36.1052H36.1022H36.0993H36.0963H36.0934H36.0904H36.0875H36.0845H36.0815H36.0785H36.0755H36.0725H36.0695H36.0664H36.0634H36.0604H36.0573H36.0543H36.0512H36.0481H36.0451H36.042H36.0389H36.0358H36.0326H36.0295H36.0264H36.0233H36.0201H36.017H36.0138H36.0106H36.0075H36.0043H36.0011H35.9979H35.9947H35.9915H35.9883H35.985H35.9818H35.9785H35.9753H35.972H35.9688H35.9655H35.9622H35.9589H35.9556H35.9523H35.949H35.9457H35.9423H35.939H35.9357H35.9323H35.9289H35.9256H35.9222H35.9188H35.9154H35.912H35.9086H35.9052H35.9018H35.8984H35.8949H35.8915H35.888H35.8846H35.8811H35.8776H35.8741H35.8706H35.8671H35.8636H35.8601H35.8566H35.8531H35.8495H35.846H35.8424H35.8389H35.8353H35.8317H35.8282H35.8246H35.821H35.8174H35.8138H35.8101H35.8065H35.8029H35.7992H35.7956H35.7919H35.7883H35.7846H35.7809H35.7772H35.7735H35.7698H35.7661H35.7624H35.7587H35.755H35.7512H35.7475H35.7437H35.74H35.7362H35.7324H35.7286H35.7249H35.7211H35.7173H35.7134H35.7096H35.7058H35.702H35.6981H35.6943H35.6904H35.6866H35.6827H35.6788H35.6749H35.671H35.6671H35.6632H35.6593H35.6554H35.6515H35.6475H35.6436H35.6396H35.6357H35.6317H35.6277H35.6238H35.6198H35.6158H35.6118H35.6078H35.6037H35.5997H35.5957H35.5917H35.5876H35.5836H35.5795H35.5754H35.5714H35.5673H35.5632H35.5591H35.555H35.5509C25.8633 51.1208 18.1303 43.0301 18.5778 33.3539L18.6166 32.5145C18.9833 24.5866 25.1032 18.1242 32.9993 17.3267C42.2192 16.3955 50.3012 23.463 50.6077 32.7247L50.703 35.6043C50.9726 43.7509 44.7065 50.6292 36.5731 51.1208Z" fill="#F9CCB6" stroke="#363A50" stroke-width="1.5743"/>
<path fill-rule="evenodd" clip-rule="evenodd" d="M29.1696 24.3452C39.2044 24.3452 47.3393 21.7714 47.3393 18.5964C47.3393 15.4215 39.2044 12.8476 29.1696 12.8476C19.1348 12.8476 11 15.4215 11 18.5964C11 21.7714 19.1348 24.3452 29.1696 24.3452Z" fill="#F8C4AC"/>
<path fill-rule="evenodd" clip-rule="evenodd" d="M48.3107 31.3645C48.3107 31.3645 49.5602 54.8541 22.4473 47.8572L35.1916 51.8554L49.935 49.6064L52.059 39.9857V32.8639L48.3107 31.3645Z" fill="black" fill-opacity="0.05"/>
</g>
<path fill-rule="evenodd" clip-rule="evenodd" d="M44.0298 35.4383C42.5579 35.6715 41.0568 33.9165 41.0568 33.9165C41.0568 33.9165 41.9421 31.7836 43.414 31.5505C44.8859 31.3173 46.387 33.0723 46.387 33.0723C46.387 33.0723 45.5017 35.2052 44.0298 35.4383Z" fill="white"/>
<path fill-rule="evenodd" clip-rule="evenodd" d="M45.4971 36.1261C45.4971 36.1261 43.8728 37.8753 40.9991 36.376L45.4971 36.1261Z" fill="black" fill-opacity="0.03"/>
<path fill-rule="evenodd" clip-rule="evenodd" d="M23.5068 36.1261C23.5068 36.1261 25.1311 37.8753 28.0048 36.376L23.5068 36.1261Z" fill="black" fill-opacity="0.03"/>
<path d="M45.2412 27.4692C44.4583 26.1132 42.2988 25.8944 40.4178 26.9804" stroke="#363A50" stroke-width="1.10201" stroke-linecap="round"/>
<path d="M24.6865 27.4692C25.4694 26.1132 27.6289 25.8944 29.51 26.9804" stroke="#363A50" stroke-width="1.10201" stroke-linecap="round"/>
<path d="M48.989 31.2237L48.9466 31.7587L49.4291 31.9937L51.5385 33.0208L52.8751 33.6716L52.6621 32.2003L50.5642 17.7053L50.5159 17.3714L50.2407 17.1762L49.7852 17.8181C50.2407 17.1762 50.2406 17.1761 50.2405 17.176L50.24 17.1756L50.2381 17.1743L50.2311 17.1693L50.2042 17.1503L50.1006 17.0775C50.0101 17.014 49.8774 16.9213 49.7075 16.8039C49.3679 16.569 48.8798 16.2347 48.2838 15.8362C47.0928 15.0398 45.4676 13.984 43.7354 12.9506C42.0072 11.9195 40.1541 10.8994 38.5113 10.1825C37.6906 9.82437 36.903 9.53326 36.1974 9.35651C35.5111 9.18457 34.8146 9.09753 34.2184 9.23318C32.4747 9.62995 29.6048 10.7014 26.7171 12.2761C23.8346 13.8481 20.8441 15.9702 18.936 18.5102L18.8017 18.689L18.7814 18.9116L17.6507 31.3366L17.562 32.311L18.5328 32.189L20.9323 31.8873L21.4747 31.8191L21.6002 31.287L23.7795 22.0481C23.8458 22.0603 23.9162 22.0733 23.9904 22.0869C24.5948 22.1976 25.4552 22.3502 26.4808 22.5184C28.5301 22.8546 31.248 23.2543 33.9061 23.5051C36.5454 23.7541 39.1942 23.8635 41.0735 23.5903C41.9891 23.4572 42.8677 23.2153 43.4487 22.7344C43.7341 22.4982 43.966 22.1886 44.0722 21.8008C44.683 22.0241 45.4879 22.4108 46.2689 23.0622C47.7965 24.3364 49.3468 26.7161 48.989 31.2237Z" fill="#886653" stroke="#363A4F" stroke-width="1.5743"/>
<mask id="mask5" mask-type="alpha" maskUnits="userSpaceOnUse" x="16" y="8" width="38" height="28">
<path d="M48.989 31.2237L48.9466 31.7587L49.4291 31.9937L51.5385 33.0208L52.8751 33.6716L52.6621 32.2003L50.5642 17.7053L50.5159 17.3714L50.2407 17.1762L49.7852 17.8181C50.2407 17.1762 50.2406 17.1761 50.2405 17.176L50.24 17.1756L50.2381 17.1743L50.2311 17.1693L50.2042 17.1503L50.1006 17.0775C50.0101 17.014 49.8774 16.9213 49.7075 16.8039C49.3679 16.569 48.8798 16.2347 48.2838 15.8362C47.0928 15.0398 45.4676 13.984 43.7354 12.9506C42.0072 11.9195 40.1541 10.8994 38.5113 10.1825C37.6906 9.82437 36.903 9.53326 36.1974 9.35651C35.5111 9.18457 34.8146 9.09753 34.2184 9.23318C32.4747 9.62995 29.6048 10.7014 26.7171 12.2761C23.8346 13.8481 20.8441 15.9702 18.936 18.5102L18.8017 18.689L18.7814 18.9116L17.6507 31.3366L17.562 32.311L18.5328 32.189L20.9323 31.8873L21.4747 31.8191L21.6002 31.287L23.7795 22.0481C23.8458 22.0603 23.9162 22.0733 23.9904 22.0869C24.5948 22.1976 25.4552 22.3502 26.4808 22.5184C28.5301 22.8546 31.248 23.2543 33.9061 23.5051C36.5454 23.7541 39.1942 23.8635 41.0735 23.5903C41.9891 23.4572 42.8677 23.2153 43.4487 22.7344C43.7341 22.4982 43.966 22.1886 44.0722 21.8008C44.683 22.0241 45.4879 22.4108 46.2689 23.0622C47.7965 24.3364 49.3468 26.7161 48.989 31.2237Z" fill="white" stroke="white" stroke-width="1.5743"/>
</mask>
<g mask="url(#mask5)">
<path fill-rule="evenodd" clip-rule="evenodd" d="M42.4308 18.0335C42.4308 18.0335 51.247 21.8252 50.4605 31.7361L52.6629 32.8085L52.8202 15.3258C52.8202 15.3258 50.7751 11.0733 47.3142 11.8608C43.8533 12.6483 42.1297 -3.41688 18.2181 15.1683C18.2181 15.1683 15.9277 19.8712 21.1191 21.2887L17.7394 31.8635L20.2447 31.5485L22.7006 21.4893C22.7006 21.4893 39.2845 22.916 42.4308 18.0335Z" fill="#886653"/>
<path opacity="0.6" d="M31.1436 32.7785C33.0664 31.8407 33.1432 28.0419 31.3151 24.2936V24.2936C29.4869 20.5454 26.4461 18.2671 24.5233 19.2049" stroke="#664C3C" stroke-width="1.10201" stroke-linecap="round"/>
<path opacity="0.6" d="M36.6494 30.2585C38.5723 29.3207 38.6491 25.5218 36.8209 21.7736V21.7736C34.9928 18.0253 31.952 15.7471 30.0291 16.6849" stroke="#664C3C" stroke-width="1.10201" stroke-linecap="round"/>
<path opacity="0.6" d="M41.3691 27.1085C43.292 26.1707 43.3688 22.3718 41.5407 18.6236V18.6236C39.7125 14.8753 36.6717 12.597 34.7488 13.5349" stroke="#664C3C" stroke-width="1.10201" stroke-linecap="round"/>
</g>
<path fill-rule="evenodd" clip-rule="evenodd" d="M43.7212 34.2678C44.2425 34.2678 44.6651 33.8447 44.6651 33.3228C44.6651 32.8009 44.2425 32.3778 43.7212 32.3778C43.1999 32.3778 42.7773 32.8009 42.7773 33.3228C42.7773 33.8447 43.1999 34.2678 43.7212 34.2678Z" fill="#363A50"/>
<path d="M33.0928 40.1175C33.0928 40.1175 33.9859 41.5524 35.0876 41.5524C36.1894 41.5524 37.0825 40.1175 37.0825 40.1175" stroke="#363A50" stroke-width="1.10201" stroke-linecap="round"/>
<path d="M16.9219 35.8829C17.5929 35.4797 18.4634 35.6962 18.8661 36.3665V36.3665C19.2688 37.0367 19.0513 37.9069 18.3803 38.3101" stroke="#363A50" stroke-width="0.648148" stroke-linecap="round"/>
<path d="M51.0459 35.7905C51.6367 35.2769 52.5316 35.339 53.0446 35.9291V35.9291C53.5576 36.5192 53.4945 37.414 52.9036 37.9276" stroke="#363A50" stroke-width="0.648148" stroke-linecap="round"/>
<path d="M32.8613 44.88C32.8613 45.7499 34.5413 45.4054 36.6137 45.4054" stroke="#363A50" stroke-width="1.10201" stroke-linecap="round"/>
<path fill-rule="evenodd" clip-rule="evenodd" d="M33.2363 46.7542H35.7352L34.4858 47.9943L33.2363 46.7542Z" fill="black" fill-opacity="0.05"/>
<path fill-rule="evenodd" clip-rule="evenodd" d="M26.2964 35.4383C27.7683 35.6715 29.2694 33.9165 29.2694 33.9165C29.2694 33.9165 28.3841 31.7836 26.9122 31.5505C25.4403 31.3173 23.9392 33.0723 23.9392 33.0723C23.9392 33.0723 24.8245 35.2052 26.2964 35.4383Z" fill="white"/>
<path fill-rule="evenodd" clip-rule="evenodd" d="M26.5747 34.2678C27.096 34.2678 27.5186 33.8447 27.5186 33.3228C27.5186 32.8009 27.096 32.3778 26.5747 32.3778C26.0534 32.3778 25.6309 32.8009 25.6309 33.3228C25.6309 33.8447 26.0534 34.2678 26.5747 34.2678Z" fill="#363A50"/>
<path fill-rule="evenodd" clip-rule="evenodd" d="M18.5314 13.5418C18.7857 11.5925 20.1626 9.97566 22.057 9.45081C26.0524 8.3439 32.7857 6.59259 35.3936 6.59259C37.7502 6.59259 44.0036 8.31237 47.7887 9.42063C49.6489 9.96529 50.9902 11.5666 51.2409 13.4886L52.5877 23.8123C52.976 26.7888 50.6586 29.4281 47.6569 29.4281H22.1223C19.1206 29.4281 16.8033 26.7888 17.1916 23.8123L18.5314 13.5418Z" fill="white"/>
<mask id="mask6" mask-type="alpha" maskUnits="userSpaceOnUse" x="17" y="6" width="36" height="24">
<path fill-rule="evenodd" clip-rule="evenodd" d="M18.5314 13.5418C18.7857 11.5925 20.1626 9.97566 22.057 9.45081C26.0524 8.3439 32.7857 6.59259 35.3936 6.59259C37.7502 6.59259 44.0036 8.31237 47.7887 9.42063C49.6489 9.96529 50.9902 11.5666 51.2409 13.4886L52.5877 23.8123C52.976 26.7888 50.6586 29.4281 47.6569 29.4281H22.1223C19.1206 29.4281 16.8033 26.7888 17.1916 23.8123L18.5314 13.5418Z" fill="white"/>
</mask>
<g mask="url(#mask6)">
<path d="M19.0889 13.6145C19.3146 11.8844 20.5352 10.4559 22.2072 9.99265C24.2014 9.44015 26.8744 8.72809 29.3714 8.15459C31.8909 7.57594 34.164 7.15484 35.3936 7.15484C36.4926 7.15484 38.5785 7.56568 40.9223 8.13725C43.2413 8.7028 45.7416 9.40711 47.6307 9.96022C49.2719 10.4407 50.4608 11.8551 50.6834 13.5613L52.0302 23.885C52.3746 26.5249 50.3192 28.8658 47.6569 28.8658H22.1223C19.46 28.8658 17.4047 26.5249 17.7491 23.885L19.0889 13.6145Z" fill="white" stroke="#363A50" stroke-width="1.1245"/>
<path fill-rule="evenodd" clip-rule="evenodd" d="M42.4586 5.93712C42.4586 5.93712 51.0867 16.1927 48.3471 22.5383C35.5617 17.2391 18.4258 25.219 18.4258 25.219L11.3076 33.2507L60.9568 29.6043L53.1763 8.82171L42.4586 5.93712Z" fill="black" fill-opacity="0.1"/>
</g>
<path fill-rule="evenodd" clip-rule="evenodd" d="M17.3525 26.9554C17.3525 26.9554 30.698 18.2859 52.217 27.205L47.9174 32.0073C47.9174 32.0073 39.3013 29.9829 34.5436 29.9829C30.1963 29.9829 21.5018 31.1075 21.5018 31.1075L17.3525 26.9554Z" fill="#A29D9D"/>
<mask id="mask7" mask-type="alpha" maskUnits="userSpaceOnUse" x="17" y="23" width="36" height="10">
<path fill-rule="evenodd" clip-rule="evenodd" d="M17.3525 26.9554C17.3525 26.9554 30.698 18.2859 52.217 27.205L47.9174 32.0073C47.9174 32.0073 39.3013 29.9829 34.5436 29.9829C30.1963 29.9829 21.5018 31.1075 21.5018 31.1075L17.3525 26.9554Z" fill="white"/>
</mask>
<g mask="url(#mask7)">
<path d="M18.2688 27.0769C18.6611 26.8664 19.2391 26.5778 19.9936 26.2578C21.5464 25.599 23.8459 24.8074 26.8119 24.2894C32.6014 23.2782 40.9491 23.3059 51.2655 27.4248L47.7199 31.385C47.7013 31.3808 47.682 31.3764 47.6619 31.3719C47.4153 31.3161 47.0582 31.2366 46.6151 31.1413C45.729 30.9506 44.4977 30.6964 43.1165 30.4421C40.3668 29.9358 36.9787 29.4206 34.5436 29.4206C32.3375 29.4206 29.0507 29.7049 26.3346 29.9859C24.9724 30.1269 23.7468 30.2678 22.8616 30.3735C22.419 30.4264 22.0614 30.4704 21.8142 30.5013C21.7748 30.5062 21.7383 30.5108 21.7046 30.515L18.2688 27.0769Z" fill="#F7334C" stroke="#363A50" stroke-width="1.1245" stroke-linecap="round"/>
<path fill-rule="evenodd" clip-rule="evenodd" d="M39.8188 23.8391C39.8188 23.8391 35.4458 27.2175 20.4525 30.466C5.45916 33.7146 48.5649 32.5901 48.5649 32.5901L53.4377 26.2179L39.8188 23.8391Z" fill="black" fill-opacity="0.05"/>
</g>
<path fill-rule="evenodd" clip-rule="evenodd" d="M33.4473 39.8554C33.4473 39.8554 36.6958 41.3547 35.0715 34.4828L37.0706 39.6055L35.1965 41.4797L33.4473 39.8554Z" fill="black" fill-opacity="0.05"/>
<path fill-rule="evenodd" clip-rule="evenodd" d="M45.0992 53.8813C44.2379 53.7439 43.3769 54.1138 42.8873 54.8356C41.1925 57.3338 37.2352 63.1748 35.2451 66.1729C31.4689 71.8619 22.8222 82.2667 22.8222 82.2667L31.1781 82.1545C31.1781 82.1545 37.073 74.0124 39.7132 69.8912C41.6357 66.8902 45.4967 61.0651 47.8384 57.5431C48.746 56.1781 47.9354 54.3337 46.3166 54.0755L45.0992 53.8813Z" fill="#32343E"/>
<rect x="36.4893" y="63.5701" width="6.97065" height="9.4472" rx="1.1245" transform="rotate(36 36.4893 63.5701)" fill="#464646" stroke="#393A42" stroke-width="1.3494"/>
<path fill-rule="evenodd" clip-rule="evenodd" d="M37.3586 64.5182L38.733 68.3915L36.359 74.3888L41.7316 67.7668L37.3586 64.5182Z" fill="black" fill-opacity="0.1"/>
</g>
</svg>
