<svg width="20" height="20" viewBox="0 0 20 20" fill="none" xmlns="http://www.w3.org/2000/svg">
<path fill-rule="evenodd" clip-rule="evenodd" d="M17.5 10C17.5 10.34 17.47 10.66 17.43 10.98L19.54 12.63C19.73 12.78 19.78 13.05 19.66 13.27L17.66 16.73C17.54 16.95 17.28 17.04 17.05 16.95L14.56 15.95C14.04 16.34 13.48 16.68 12.87 16.93L12.49 19.58C12.46 19.82 12.25 20 12 20H8.00002C7.75002 20 7.54002 19.82 7.51002 19.58L7.13002 16.93C6.52002 16.68 5.96002 16.35 5.44002 15.95L2.95002 16.95C2.73002 17.03 2.46002 16.95 2.34002 16.73L0.340023 13.27C0.220023 13.05 0.270023 12.78 0.460023 12.63L2.57002 10.98C2.53002 10.66 2.50002 10.33 2.50002 10C2.50002 9.67 2.53002 9.34 2.57002 9.02L0.460023 7.37C0.270023 7.22 0.210023 6.95 0.340023 6.73L2.34002 3.27C2.46002 3.05 2.72002 2.96 2.95002 3.05L5.44002 4.05C5.96002 3.66 6.52002 3.32 7.13002 3.07L7.51002 0.42C7.54002 0.18 7.75002 0 8.00002 0H12C12.25 0 12.46 0.18 12.49 0.42L12.87 3.07C13.48 3.32 14.04 3.65 14.56 4.05L17.05 3.05C17.27 2.97 17.54 3.05 17.66 3.27L19.66 6.73C19.78 6.95 19.73 7.22 19.54 7.37L17.43 9.02C17.47 9.34 17.5 9.66 17.5 10ZM6.50002 10C6.50002 11.93 8.07002 13.5 10 13.5C11.93 13.5 13.5 11.93 13.5 10C13.5 8.07 11.93 6.5 10 6.5C8.07002 6.5 6.50002 8.07 6.50002 10Z" fill="black"/>
</svg>
