<svg width="18" height="18" viewBox="0 0 18 18" fill="none" xmlns="http://www.w3.org/2000/svg">
<rect width="18" height="18" rx="9" fill="#2B6EB2"/>
<path d="M7.47559 6.67432H8.41504C8.889 6.67008 9.26351 6.54736 9.53857 6.30615C9.81787 6.06494 9.95752 5.71582 9.95752 5.25879C9.95752 4.81868 9.84115 4.47803 9.6084 4.23682C9.37988 3.99137 9.02865 3.86865 8.55469 3.86865C8.13997 3.86865 7.79932 3.98926 7.53271 4.23047C7.26611 4.46745 7.13281 4.77848 7.13281 5.16357H5.59033C5.59033 4.68962 5.71517 4.25798 5.96484 3.86865C6.21875 3.47933 6.56999 3.17676 7.01855 2.96094C7.47135 2.74089 7.97705 2.63086 8.53564 2.63086C9.45817 2.63086 10.1818 2.86361 10.7065 3.3291C11.2355 3.79036 11.5 4.43359 11.5 5.25879C11.5 5.6735 11.3667 6.06494 11.1001 6.43311C10.8377 6.79704 10.4971 7.0721 10.0781 7.2583C10.5859 7.4318 10.971 7.70475 11.2334 8.07715C11.5 8.44954 11.6333 8.89388 11.6333 9.41016C11.6333 10.2396 11.3477 10.8997 10.7764 11.3906C10.2093 11.8815 9.4624 12.127 8.53564 12.127C7.64697 12.127 6.91911 11.89 6.35205 11.416C5.78499 10.9421 5.50146 10.3115 5.50146 9.52441H7.04395C7.04395 9.93066 7.17936 10.2607 7.4502 10.5146C7.72526 10.7686 8.09342 10.8955 8.55469 10.8955C9.03288 10.8955 9.40951 10.7686 9.68457 10.5146C9.95964 10.2607 10.0972 9.89258 10.0972 9.41016C10.0972 8.9235 9.95329 8.54899 9.66553 8.28662C9.37777 8.02425 8.95036 7.89307 8.3833 7.89307H7.47559V6.67432Z" fill="white"/>
</svg>
