<svg width="18" height="19" viewBox="0 0 18 19" fill="none" xmlns="http://www.w3.org/2000/svg">
<rect y="1" width="18" height="18" rx="9" fill="#FF7761"/>
<path d="M11.9062 12H5.69189V10.9399L8.77051 7.58203C9.21484 7.08691 9.53011 6.67432 9.71631 6.34424C9.90674 6.00993 10.002 5.67562 10.002 5.34131C10.002 4.9012 9.87712 4.54574 9.62744 4.2749C9.382 4.00407 9.0498 3.86865 8.63086 3.86865C8.13151 3.86865 7.7443 4.021 7.46924 4.32568C7.19417 4.63037 7.05664 5.0472 7.05664 5.57617H5.51416C5.51416 5.01335 5.64111 4.50765 5.89502 4.05908C6.15316 3.60628 6.51921 3.25505 6.99316 3.00537C7.47135 2.7557 8.02148 2.63086 8.64355 2.63086C9.54069 2.63086 10.2474 2.85726 10.7637 3.31006C11.2842 3.75863 11.5444 4.3807 11.5444 5.17627C11.5444 5.63753 11.4132 6.12207 11.1509 6.62988C10.8927 7.13346 10.4674 7.70687 9.875 8.3501L7.61523 10.7686H11.9062V12Z" fill="white"/>
</svg>
