<svg width="50" height="49" viewBox="0 0 50 49" fill="none" xmlns="http://www.w3.org/2000/svg">
<path d="M48.2958 24.4197C48.2958 37.3452 37.7171 47.8393 24.6479 47.8393C11.5787 47.8393 1 37.3452 1 24.4197C1 11.4941 11.5787 1 24.6479 1C37.7171 1 48.2958 11.4941 48.2958 24.4197Z" stroke="#F92251" stroke-width="2"/>
<path fill-rule="evenodd" clip-rule="evenodd" d="M28.864 32.1311L24.3236 29.2862L19.7832 32.1311C19.1563 32.1311 18.6481 31.6216 18.6481 30.9932V19.6134C18.6481 18.9849 19.1563 18.4754 19.7832 18.4754H28.864C29.4909 18.4754 29.9991 18.9849 29.9991 19.6134V30.9932C29.9991 31.6216 29.4909 32.1311 28.864 32.1311ZM28.864 19.6134H19.7832V30.9932L24.3236 28.1482L28.864 30.9932V19.6134Z" fill="white"/>
</svg>
