<svg width="50" height="49" viewBox="0 0 50 49" fill="none" xmlns="http://www.w3.org/2000/svg">
<g id="icon">
<path id="Oval" fill-rule="evenodd" clip-rule="evenodd" d="M24.7389 48.8393C38.4018 48.8393 49.4778 37.9063 49.4778 24.4197C49.4778 10.9331 38.4018 0 24.7389 0C11.076 0 0 10.9331 0 24.4197C0 37.9063 11.076 48.8393 24.7389 48.8393Z" fill="#F92251"/>
<path id="Icon-Shape" fill-rule="evenodd" clip-rule="evenodd" d="M21.1583 31.5084C21.1583 32.0049 21.6829 32.3007 22.0743 32.0261L31.4742 25.4294C31.8249 25.184 31.8249 24.6414 31.4754 24.3953L22.0754 17.7776C21.6835 17.5023 21.1583 17.7981 21.1583 18.2946V31.5084Z" fill="white"/>
<mask id="mask0" mask-type="alpha" maskUnits="userSpaceOnUse" x="21" y="17" width="11" height="16">
<path id="Icon-Shape_2" fill-rule="evenodd" clip-rule="evenodd" d="M21.1583 31.5084C21.1583 32.0049 21.6829 32.3007 22.0743 32.0261L31.4742 25.4294C31.8249 25.184 31.8249 24.6414 31.4754 24.3953L22.0754 17.7776C21.6835 17.5023 21.1583 17.7981 21.1583 18.2946V31.5084Z" fill="white"/>
</mask>
<g mask="url(#mask0)">
</g>
</g>
</svg>
