<svg width="23" height="21" viewBox="0 0 23 21" fill="none" xmlns="http://www.w3.org/2000/svg">
<path fill-rule="evenodd" clip-rule="evenodd" d="M22.7199 7.87005C22.5302 7.34267 22.0407 6.95703 21.4497 6.8694L15.6971 6.05006L13.2027 1.07333C12.9416 0.550704 12.3778 0.21637 11.7577 0.21637C11.1376 0.21637 10.5738 0.550704 10.3126 1.07333L7.81829 6.04835L2.06566 6.86769C1.47399 6.95574 0.984096 7.34219 0.794551 7.87039C0.605007 8.39858 0.74726 8.9809 1.16365 9.38129L5.37917 13.4147L4.40353 19.0106C4.30005 19.5727 4.55281 20.1401 5.05354 20.4698C5.55427 20.7995 6.21416 20.8331 6.7506 20.5561L11.7577 17.9681L16.7648 20.5561C17.002 20.6764 17.2676 20.7405 17.5379 20.7425C18.0078 20.7418 18.4536 20.549 18.7567 20.2154C19.0599 19.8818 19.1898 19.4412 19.1118 19.0106L18.1362 13.4147L22.3517 9.38129C22.7683 8.98084 22.9103 8.39817 22.7199 7.87005ZM16.8568 12.3311C16.4209 12.831 16.3501 13.1245 16.4334 13.5797L17.3815 19.0388L12.5124 16.5158C12.0432 16.273 11.4722 16.273 11.0029 16.5158L6.13391 19.0388L7.08195 13.5797C7.16525 13.1245 7.00768 12.6598 6.65855 12.3311L2.56268 8.39689L8.15884 7.59637C8.67045 7.51996 9.10817 7.21315 9.32777 6.77703L11.7577 1.92431L14.1876 6.77789C14.4074 7.21367 14.8451 7.52013 15.3565 7.59637L20.9527 8.39774C20.9527 8.39774 18.6805 10.24 16.8568 12.3311Z" fill="#F92251"/>
</svg>
